<svg id="visual" viewBox="0 0 900 600" width="900" height="600" xmlns="http://www.w3.org/2000/svg" xmlns:xlink="http://www.w3.org/1999/xlink" version="1.1"><rect x="0" y="0" width="900" height="600" fill="#001220"></rect><defs><linearGradient id="grad1_0" x1="33.3%" y1="0%" x2="100%" y2="100%"><stop offset="20%" stop-color="#001220" stop-opacity="1"></stop><stop offset="80%" stop-color="#001220" stop-opacity="1"></stop></linearGradient></defs><defs><linearGradient id="grad2_0" x1="0%" y1="0%" x2="66.7%" y2="100%"><stop offset="20%" stop-color="#001220" stop-opacity="1"></stop><stop offset="80%" stop-color="#001220" stop-opacity="1"></stop></linearGradient></defs><g transform="translate(900, 0)"><path d="M0 216.3C-19.6 192.5 -39.1 168.7 -67 161.7C-94.8 154.7 -130.9 164.6 -153 153C-175 141.4 -183 108.3 -191.2 79.2C-199.5 50.1 -207.9 25.1 -216.3 0L0 0Z" fill="#FBAE3C"></path></g><g transform="translate(0, 600)"><path d="M0 -216.3C30.3 -211.7 60.6 -207.2 78.5 -189.4C96.3 -171.6 101.7 -140.7 123 -123C144.4 -105.4 181.7 -101.1 199.9 -82.8C218.1 -64.5 217.2 -32.2 216.3 0L0 0Z" fill="#FBAE3C"></path></g></svg>