<?xml version="1.0" encoding="iso-8859-1"?>
<!-- Generator: Adobe Illustrator 19.0.0, SVG Export Plug-In . SVG Version: 6.00 Build 0)  -->
<svg version="1.1" id="Layer_1" xmlns="http://www.w3.org/2000/svg" xmlns:xlink="http://www.w3.org/1999/xlink" x="0px" y="0px"
	 viewBox="0 0 512 512" style="enable-background:new 0 0 512 512;" xml:space="preserve">
<path style="fill:#3CA8FA;" d="M511.344,274.266C511.77,268.231,512,262.143,512,256C512,114.615,397.385,0,256,0S0,114.615,0,256
	c0,117.769,79.53,216.949,187.809,246.801L511.344,274.266z"/>
<path style="fill:#0076CF;" d="M511.344,274.266L314.991,77.913L119.096,434.087l68.714,68.714C209.522,508.787,232.385,512,256,512
	C391.243,512,501.976,407.125,511.344,274.266z"/>
<polygon style="fill:#FFFFFF;" points="278.328,333.913 255.711,77.913 119.096,77.913 119.096,311.652 "/>
<polygon style="fill:#E8E6E6;" points="392.904,311.652 392.904,155.826 337.252,133.565 314.991,77.913 255.711,77.913 
	256.067,333.913 "/>
<polygon style="fill:#FFFFFF;" points="314.991,155.826 314.991,77.913 392.904,155.826 "/>
<rect x="119.096" y="311.652" style="fill:#00477D;" width="273.809" height="122.435"/>
<g>
	<path style="fill:#FFFFFF;" d="M243.242,372.42v20.66c-5.677,4.011-14.605,6.888-22.023,6.888
		c-16.119,0-28.305-11.655-28.305-27.094c0-15.362,12.487-26.941,29.213-26.941c7.87,0,16.196,3.027,21.643,7.87l-7.568,9.157
		c-3.86-3.557-9.233-5.751-14.152-5.751c-8.703,0-15.363,6.811-15.363,15.665c0,9.006,6.736,15.817,15.515,15.817
		c2.724,0,6.204-0.984,9.384-2.573V372.42H243.242z"/>
	<path style="fill:#FFFFFF;" d="M254.525,399.362v-52.975h13.471v52.975H254.525z"/>
	<path style="fill:#FFFFFF;" d="M293.956,356.982v12.26h23.763v10.596h-23.763v19.525h-13.471v-52.975h39.277v10.595h-25.806
		V356.982z"/>
</g>
<g>
</g>
<g>
</g>
<g>
</g>
<g>
</g>
<g>
</g>
<g>
</g>
<g>
</g>
<g>
</g>
<g>
</g>
<g>
</g>
<g>
</g>
<g>
</g>
<g>
</g>
<g>
</g>
<g>
</g>
</svg>
