<svg width="77" height="76" viewBox="0 0 77 76" fill="none" xmlns="http://www.w3.org/2000/svg">
<path d="M70.8056 36.9393L76.1414 35.3707C75.9871 33.5192 75.7043 31.6806 75.28 29.8934L69.7256 30.0477L68.7613 27.0905L73.3514 23.9405C72.6314 22.2304 71.7828 20.5718 70.8313 19.0032L65.5855 20.8676L63.7469 18.3604L67.1413 13.9503C65.9327 12.5488 64.6084 11.2245 63.2198 10.0288L58.8225 13.4103L56.3025 11.5845L58.1668 6.3387C56.5982 5.38726 54.9396 4.53867 53.2296 3.81866L50.0795 8.40874L47.1223 7.4573L47.2766 1.89005C45.4894 1.46576 43.6508 1.18289 41.7994 1.02861L40.2179 6.35156H37.1064L35.5378 1.01575C33.6863 1.17004 31.8477 1.4529 30.0606 1.87719L30.2149 7.44444L27.2577 8.40874L24.1076 3.81866C22.3976 4.53867 20.739 5.38726 19.1704 6.3387L21.0347 11.5845L18.5146 13.4103L14.1045 10.0159C12.7031 11.2245 11.3916 12.536 10.183 13.9374L13.5774 18.3475L11.7516 20.8676L6.50583 19.0032C5.55439 20.5847 4.7058 22.2433 3.98578 23.9405L8.57587 27.0905L7.61157 30.0477L2.04432 29.8934C1.63289 31.6806 1.33717 33.5192 1.18288 35.3707L6.51869 36.9393V40.0508L1.18288 41.6194C1.33717 43.4708 1.62003 45.3094 2.04432 47.0966L7.61157 46.9423L8.57587 49.8995L3.98578 53.0496C4.7058 54.7468 5.54153 56.4054 6.50583 57.9868L11.7516 56.1225L13.5903 58.6426L10.1959 63.0526C11.4045 64.4412 12.7159 65.7655 14.1174 66.9741L18.5146 63.5926L21.0347 65.4184L19.1704 70.6642C20.739 71.6157 22.3976 72.4642 24.1076 73.1843L27.2577 68.5942L30.2149 69.5585L30.0606 75.1257C31.8477 75.55 33.6863 75.8329 35.5378 75.9872L37.1064 70.6642H40.2179L41.7865 76C43.638 75.8457 45.4766 75.5629 47.2637 75.1386L47.1095 69.5842L50.0667 68.6199L53.2167 73.2228C54.9267 72.5028 56.5725 71.6542 58.1539 70.7028L56.2896 65.457L58.8097 63.6184L63.2198 67.0127C64.6212 65.8041 65.9327 64.4927 67.1413 63.0912L63.7598 58.694L65.5855 56.1739L70.8313 58.0383C71.7828 56.4697 72.6314 54.811 73.3514 53.101L68.7484 49.9124L69.6999 46.9552L75.2671 47.1095C75.6914 45.3223 75.9743 43.4837 76.1286 41.6322L70.8056 40.0508V36.9393ZM38.6622 64.1198C24.5319 64.1198 13.0374 52.6253 13.0374 38.495C13.0374 24.3648 24.5319 12.8703 38.6622 12.8703C52.7924 12.8703 64.2869 24.3648 64.2869 38.495C64.2869 52.6253 52.7924 64.1198 38.6622 64.1198Z" fill="#00BEB0"/>
<path d="M38.0193 12.6002C24.0047 12.6002 12.6388 23.9661 12.6388 37.9807C12.6388 51.9952 24.0047 63.374 38.0193 63.374C52.0467 63.374 63.3998 52.0081 63.3998 37.9807C63.3998 23.9661 52.0467 12.6002 38.0193 12.6002ZM38.0193 63.1297C24.159 63.1297 12.8702 51.8538 12.8702 37.9807C12.8702 24.1204 24.1462 12.8317 38.0193 12.8317C51.8795 12.8317 63.1683 24.1076 63.1683 37.9807C63.1683 51.841 51.8795 63.1297 38.0193 63.1297Z" fill="black"/>
<path d="M70.6385 36.785L76 35.2035L75.9871 35.0107C75.8329 33.0049 75.5243 31.012 75.0614 29.0705L75.01 28.8777L69.417 29.032L68.6713 26.7562L73.2871 23.5933L73.21 23.4133C72.4385 21.5618 71.5256 19.7618 70.4842 18.0646L70.3813 17.8975L65.1098 19.7747L63.6955 17.846L67.1027 13.4103L66.9741 13.256C65.6755 11.7259 64.2355 10.2988 62.7183 9.00017L62.564 8.8716L58.1411 12.2788L56.1996 10.8773L58.0768 5.60582L57.9097 5.50296C56.2125 4.46151 54.4125 3.54864 52.561 2.77719L52.381 2.70005L49.2181 7.31585L46.9423 6.58298L47.0966 0.990018L46.9037 0.938588C44.9751 0.475722 42.9694 0.167145 40.9636 0.0128562L40.7708 0L39.1893 5.36153H36.7978L35.2164 0L35.0235 0.0128562C33.0178 0.167145 31.0249 0.475722 29.0834 0.938588L28.8905 0.990018L29.0448 6.58298L26.7691 7.31585L23.5933 2.70005L23.4133 2.77719C21.5618 3.54864 19.7618 4.46151 18.0646 5.50296L17.8975 5.60582L19.7747 10.8773L17.846 12.2788L13.4103 8.8716L13.256 9.00017C11.7388 10.2988 10.3116 11.7259 9.00017 13.256L8.8716 13.4103L12.2788 17.846L10.8773 19.7747L5.60582 17.8975L5.50296 18.0646C4.46151 19.7618 3.53578 21.5747 2.7772 23.4133L2.70005 23.5933L7.31586 26.7562L6.58298 29.032L0.99002 28.8777L0.938591 29.0705C0.475726 30.9992 0.167147 33.0049 0.0128582 35.0107L0 35.2035L5.36153 36.785V39.1764L0 40.7579L0.0128582 40.9508C0.167147 42.9694 0.488584 44.9623 0.95145 46.8909L1.00288 47.0837L6.59584 46.9295L7.34157 49.2052L2.72577 52.3681L2.80291 52.5481C3.5615 54.3996 4.48723 56.1996 5.52868 57.8968L5.63154 58.064L10.9031 56.1868L12.3045 58.1154L8.89731 62.5383L9.02589 62.6926C10.3245 64.2098 11.7517 65.6369 13.2688 66.9355L13.4231 67.0641L17.846 63.6569L19.7875 65.0584L17.9103 70.3299L18.0775 70.4328C19.7747 71.4742 21.5747 72.3871 23.4262 73.1585L23.6062 73.2357L26.7691 68.6199L29.0448 69.3527L28.8905 74.9457L29.0834 74.9971C31.012 75.46 33.0049 75.7686 35.0235 75.9229L35.2164 75.9357L36.7978 70.587H39.1893L40.7708 75.9486L40.9636 75.9357C42.9694 75.7814 44.9623 75.4729 46.9037 75.01L47.0966 74.9586L46.9423 69.3656L49.2181 68.6199L52.381 73.2485L52.561 73.1714C54.4125 72.3999 56.2125 71.4871 57.9097 70.4328L58.0768 70.3299L56.1996 65.0584L58.1282 63.6441L62.5512 67.0513L62.7055 66.9227C64.2226 65.6241 65.6498 64.1969 66.9613 62.6669L67.0898 62.5126L63.6826 58.0897L65.0841 56.1482L70.3556 58.0254L70.4585 57.8582C71.4999 56.1611 72.4257 54.361 73.1842 52.5096L73.2614 52.3296L68.6456 49.1666L69.3785 46.8909L74.9714 47.0452L75.0228 46.8523C75.4857 44.9237 75.7943 42.9179 75.9486 40.9122L75.9614 40.7193L70.6128 39.1379L70.6385 36.785ZM74.8171 46.8266L69.237 46.6723L68.3884 49.2952L72.9914 52.4581C72.2199 54.3096 71.3199 56.0839 70.2785 57.7811L65.0198 55.9039L63.4126 58.1282L66.807 62.5383C65.5084 64.0555 64.0941 65.4698 62.5897 66.7555L58.1797 63.3612L55.9553 64.9812L57.8197 70.2399C56.1353 71.2813 54.3482 72.1814 52.4967 72.9528L49.3338 68.3499L46.7237 69.2113L46.878 74.7914C44.9623 75.2543 42.9951 75.5629 40.9765 75.7171L39.395 70.3685H36.6435L35.0621 75.7043C33.0435 75.55 31.0763 75.2414 29.1605 74.7785L29.3148 69.1984L26.6919 68.3499L23.529 72.9528C21.6776 72.1814 19.9032 71.2813 18.2189 70.2399L20.0832 64.9812L17.8589 63.3612L13.4617 66.7684C11.9445 65.4698 10.5302 64.0683 9.24446 62.5512L12.6388 58.1282L11.0188 55.9039L5.74725 57.7682C4.7058 56.0839 3.80579 54.2967 3.03434 52.4581L7.63729 49.2952L6.7887 46.6723L1.2086 46.8266C0.745731 44.9108 0.437153 42.9437 0.282864 40.9251L5.63154 39.3436V36.5921L0.282864 35.0107C0.437153 32.992 0.745731 31.0249 1.2086 29.1091L6.7887 29.2634L7.63729 26.6405L3.03434 23.4776C3.80579 21.6261 4.7058 19.8518 5.74725 18.1546L11.0059 20.0318L12.626 17.8075L9.2316 13.4231C10.5302 11.9059 11.9317 10.4916 13.4488 9.20589L17.8718 12.6002L20.0961 10.9802L18.2318 5.70868C19.9161 4.66723 21.7033 3.76721 23.5419 2.99577L26.7048 7.59871L29.3148 6.75013L29.1605 1.17002C31.0763 0.707155 33.0435 0.398578 35.0621 0.24429L36.6435 5.59296H39.395L40.9765 0.24429C42.9951 0.398578 44.9623 0.707155 46.878 1.17002L46.7237 6.75013L49.3466 7.59871L52.5096 2.99577C54.361 3.76721 56.1353 4.66723 57.8197 5.70868L55.9425 10.9802L58.1668 12.5874L62.5769 9.19303C64.0941 10.4916 65.5084 11.9059 66.7941 13.4103L63.3998 17.8332L65.0198 20.0575L70.2785 18.1932C71.3199 19.8775 72.2199 21.6647 72.9914 23.5162L68.3884 26.6662L69.2499 29.2763L74.8171 29.122C75.28 31.0377 75.5886 33.0049 75.7429 35.0235L70.3942 36.605L70.407 39.3565L75.7429 40.9379C75.5886 42.9437 75.28 44.9237 74.8171 46.8266Z" fill="black"/>
<path d="M70.3942 36.605L75.7429 35.0235C75.5886 33.0049 75.28 31.0377 74.8171 29.122L69.2499 29.2763L68.3884 26.6662L72.9914 23.5033C72.2199 21.6518 71.3199 19.8775 70.2785 18.1803L65.0198 20.0447L63.3998 17.8203L66.7941 13.3974C65.4955 11.8802 64.0812 10.4659 62.5769 9.18018L58.1668 12.5745L55.9425 10.9802L57.8197 5.72154C56.1354 4.68009 54.3482 3.78007 52.5096 3.00863L49.3338 7.59872L46.7109 6.75013L46.8652 1.17002C44.9494 0.707159 42.9823 0.398582 40.9636 0.244293L39.3822 5.59297H36.6307L35.0621 0.257151C33.0435 0.41144 31.0763 0.720017 29.1606 1.18288L29.3148 6.76299L26.7048 7.61158L23.5419 3.00863C21.6904 3.78007 19.9161 4.68009 18.2318 5.72154L20.0961 10.9802L17.8718 12.6002L13.4617 9.19303C11.9445 10.4916 10.5302 11.9059 9.24447 13.4103L12.6388 17.8332L11.0188 20.0575L5.74726 18.1932C4.70581 19.8775 3.80579 21.6647 3.03435 23.5162L7.63729 26.6791L6.78871 29.302L1.2086 29.1477C0.745735 31.0634 0.437156 33.0306 0.282867 35.0492L5.63154 36.6307V39.3822L0.295726 40.9379C0.450014 42.9565 0.758589 44.9237 1.22146 46.8395L6.80156 46.6852L7.65015 49.3081L3.04721 52.4581C3.81865 54.3096 4.71867 56.0839 5.76011 57.7682L11.0188 55.9039L12.6388 58.1282L9.24447 62.5512C10.5431 64.0683 11.9445 65.4827 13.4617 66.7684L17.8846 63.3741L20.109 64.9941L18.2318 70.2528C19.9161 71.2942 21.7033 72.1942 23.5419 72.9657L26.7048 68.3627L29.3277 69.2113L29.1734 74.7914C31.0892 75.2543 33.0563 75.5629 35.075 75.7171L36.6564 70.3813H39.4079L40.9893 75.73C43.008 75.5757 44.9751 75.2671 46.8909 74.8043L46.7366 69.2242L49.3467 68.3627L52.5096 72.9785C54.361 72.2071 56.1354 71.3071 57.8325 70.2656L55.9682 65.0069L58.1925 63.3869L62.6026 66.7813C64.1198 65.4827 65.5341 64.0684 66.8198 62.564L63.4255 58.154L65.0327 55.9296L70.2913 57.7939C71.3328 56.1096 72.2328 54.3225 73.0042 52.471L68.4013 49.2952L69.2499 46.6723L74.83 46.8266C75.2929 44.9108 75.6014 42.9437 75.7557 40.9251L70.4199 39.3436L70.3942 36.605ZM74.6243 46.5823L69.057 46.428L68.1056 49.3852L72.6957 52.5353C71.9757 54.2453 71.1399 55.9039 70.1756 57.4725L64.9298 55.6082L63.1041 58.1282L66.4856 62.5255C65.277 63.9269 63.9655 65.2384 62.5641 66.447L58.154 63.0526L55.6339 64.8912L57.4982 70.137C55.9296 71.0885 54.271 71.9371 52.561 72.6571L49.4367 68.067L46.4795 69.0313L46.6337 74.5857C44.8466 75.01 43.008 75.2929 41.1565 75.4471L39.575 70.1242H36.4636L34.895 75.4471C33.0435 75.2929 31.2049 75.01 29.4177 74.5857L29.572 69.0184L26.6148 68.0541L23.4647 72.6442C21.7547 71.9242 20.0961 71.0756 18.5275 70.1242L20.3918 64.8784L17.8718 63.0526L13.4617 66.4598C12.0602 65.2512 10.7488 63.9398 9.54019 62.5383L12.9345 58.1282L11.0959 55.6082L5.85011 57.4725C4.89867 55.8911 4.05008 54.2325 3.33007 52.5353L7.92015 49.3852L6.95585 46.428L1.3886 46.5823C0.977167 44.808 0.681446 42.9694 0.527157 41.1051L5.86297 39.5365V36.425L0.527157 34.8564C0.681446 33.0049 0.96431 31.1663 1.3886 29.3791L6.95585 29.5334L7.92015 26.5762L3.33007 23.4262C4.05008 21.729 4.88581 20.0704 5.85011 18.4889L11.0959 20.3532L12.9217 17.8332L9.54019 13.4231C10.7488 12.0217 12.0602 10.7102 13.4617 9.50161L17.8718 12.896L20.3918 11.0702L18.5275 5.8244C20.0961 4.87295 21.7547 4.02436 23.4647 3.30435L26.6148 7.89444L29.572 6.93013L29.4177 1.36289C31.2049 0.938592 33.0435 0.65573 34.895 0.501441L36.4636 5.83726H39.575L41.1436 0.501441C42.9951 0.65573 44.8337 0.938592 46.6209 1.36289L46.4666 6.93013L49.4238 7.88158L52.5739 3.29149C54.2839 4.01151 55.9425 4.86009 57.5111 5.81154L55.6468 11.0574L58.1668 12.8831L62.5641 9.50161C63.9526 10.6973 65.277 12.0217 66.4856 13.4231L63.0912 17.8332L64.9298 20.3404L70.1756 18.4761C71.1271 20.0447 71.9757 21.7033 72.6957 23.4133L68.1056 26.5634L69.0699 29.5206L74.6243 29.3663C75.0486 31.1534 75.3314 32.9921 75.4857 34.8435L70.1628 36.425L70.1756 39.5365L75.4986 41.1051C75.3314 42.9565 75.0486 44.7951 74.6243 46.5823Z" fill="black"/>
<path d="M38.0193 12.3559C23.889 12.3559 12.3945 23.8504 12.3945 37.9807C12.3945 52.111 23.889 63.6055 38.0193 63.6055C52.1496 63.6055 63.6441 52.111 63.6441 37.9807C63.6441 23.8504 52.1496 12.3559 38.0193 12.3559ZM38.0193 63.374C24.0047 63.374 12.6388 52.0081 12.6388 37.9807C12.6388 23.9661 24.0047 12.6002 38.0193 12.6002C52.0467 12.6002 63.3998 23.9661 63.3998 37.9807C63.3998 51.9952 52.0467 63.374 38.0193 63.374Z" fill="black"/>
<path d="M60.584 48.2924C58.9511 46.6595 56.7654 45.7595 54.451 45.7595C53.6925 45.7595 52.9339 45.8623 52.201 46.0552L52.0724 46.0937L31.2177 25.2391L31.2563 25.1105C32.0535 22.1276 31.192 18.9132 29.0063 16.7275C27.3734 15.0946 25.2005 14.1946 22.8862 14.1946C22.269 14.1946 21.6519 14.2589 21.0476 14.3874L27.1291 20.469L20.4818 27.1163L14.4003 21.0347C13.7831 23.9019 14.6574 26.9234 16.7403 29.0063C18.3732 30.6392 20.559 31.5392 22.8733 31.5392C23.6319 31.5392 24.3905 31.4363 25.1234 31.2435L25.2519 31.2049L46.0937 52.0467L46.0552 52.1753C45.258 55.1582 46.1195 58.3726 48.3052 60.5583C49.9381 62.1912 52.1239 63.0912 54.4382 63.0912C55.0553 63.0912 55.6725 63.0269 56.2768 62.8984L50.1953 56.8168L56.8425 50.1695L62.9241 56.2511C63.5412 53.3839 62.6541 50.3753 60.584 48.2924ZM49.6938 49.7838C49.1024 50.3753 48.3052 50.7096 47.4695 50.7096C46.6338 50.7096 45.8366 50.3881 45.2452 49.7838L28.1191 32.6706C26.8977 31.4492 26.8977 29.4434 28.1191 28.222C28.7106 27.6305 29.5077 27.2963 30.3434 27.2963C31.1792 27.2963 31.9763 27.6177 32.5678 28.222L49.681 45.3352C50.9153 46.5695 50.9153 48.5624 49.6938 49.7838Z" fill="#D1D3D4"/>
<path d="M60.2754 47.4309C58.5525 45.708 56.2511 44.7437 53.7953 44.7437C53.0367 44.7437 52.291 44.8337 51.5581 45.0137L31.1149 24.5705C31.8992 21.459 30.9863 18.1289 28.7105 15.866C26.9877 14.1431 24.6862 13.1788 22.2304 13.1788C21.4333 13.1788 20.6361 13.2817 19.8518 13.4874L19.4404 13.5903L25.7791 19.929L19.8132 25.8948L13.4746 19.5561L13.3717 19.9675C12.536 23.1176 13.436 26.5119 15.7375 28.8134C17.4603 30.5363 19.7618 31.5006 22.2047 31.5006C22.9633 31.5006 23.709 31.4106 24.4419 31.2306L44.8851 51.6738C44.1008 54.7853 45.0137 58.1154 47.2895 60.3912C49.0124 62.114 51.3138 63.0655 53.7696 63.0655C54.5668 63.0655 55.3639 62.9626 56.1482 62.7569L56.5596 62.6541L50.2338 56.3025L56.1996 50.3367L62.5383 56.6754L62.6412 56.2639C63.4898 53.1267 62.5769 49.7324 60.2754 47.4309ZM62.4098 56.2125L56.1868 49.9895L49.8867 56.2897L56.1096 62.5126C53.1396 63.3098 49.8352 62.5383 47.4952 60.2112C45.1551 57.8711 44.3966 54.5668 45.1937 51.5967L24.5448 30.9606C21.5747 31.7578 18.2704 30.9863 15.9303 28.6591C13.5903 26.3191 12.8317 23.0147 13.6288 20.0447L19.8518 26.2677L26.1519 19.9675L19.929 13.7446C22.899 12.9474 26.2034 13.7188 28.5434 16.046C30.8706 18.3861 31.642 21.6904 30.8449 24.6605L51.481 45.2966C54.451 44.4994 57.7554 45.2709 60.0954 47.5981C62.4355 49.9381 63.2069 53.2424 62.4098 56.2125Z" fill="black"/>
<path d="M60.1083 47.5981C57.7683 45.2709 54.4639 44.4994 51.4938 45.2966L30.8449 24.6605C31.642 21.6904 30.8706 18.3861 28.5434 16.046C26.2162 13.7189 22.899 12.9474 19.929 13.7446L26.1519 19.9675L19.8518 26.2677L13.6288 20.0447C12.8317 23.0147 13.6031 26.3191 15.9303 28.6591C18.2704 30.9992 21.5747 31.7578 24.5448 30.9606L45.1809 51.5967C44.3837 54.5668 45.1552 57.8711 47.4823 60.2112C49.8095 62.5383 53.1267 63.3098 56.0968 62.5126L49.8738 56.2897L56.1739 49.9895L62.3969 56.2125C63.2069 53.2425 62.4355 49.9381 60.1083 47.5981ZM62.2812 55.7368L56.1997 49.6552L49.5524 56.3025L55.6339 62.3841C55.0296 62.5126 54.4125 62.5769 53.7953 62.5769C51.481 62.5769 49.2952 61.6769 47.6623 60.044C45.4766 57.8583 44.6151 54.6568 45.4123 51.661L45.4509 51.5324L24.6219 30.6906L24.4933 30.7292C23.7605 30.922 23.0019 31.0249 22.2433 31.0249C19.929 31.0249 17.7432 30.1249 16.1103 28.492C14.0274 26.4091 13.1531 23.3876 13.7703 20.5204L19.8518 26.602L26.4991 19.9547L20.4047 13.8731C21.009 13.7446 21.6261 13.6803 22.2433 13.6803C24.5576 13.6803 26.7434 14.5803 28.3763 16.2132C30.562 18.3989 31.4235 21.6004 30.6263 24.5962L30.5877 24.7248L51.4167 45.5666L51.5453 45.528C52.2781 45.3352 53.0367 45.2323 53.7953 45.2323C56.1097 45.2323 58.2954 46.1323 59.9283 47.7652C62.0112 49.861 62.8984 52.8696 62.2812 55.7368Z" fill="black"/>
<path d="M32.2335 28.5563C31.732 28.0548 31.0635 27.772 30.3563 27.772C29.6491 27.772 28.9806 28.0548 28.4791 28.5563C27.4377 29.5977 27.4377 31.282 28.4791 32.3235L45.5923 49.4367C46.0937 49.9381 46.7623 50.221 47.4695 50.221C48.1766 50.221 48.8452 49.9381 49.3467 49.4367C50.3881 48.3952 50.3881 46.7109 49.3467 45.6695L32.2335 28.5563Z" fill="#BCBEC0"/>
<path d="M31.9249 27.7077C31.3335 27.1162 30.5363 26.782 29.7006 26.782C28.8648 26.782 28.0677 27.1034 27.4762 27.7077C26.2548 28.9291 26.2548 30.9349 27.4762 32.1563L44.5894 49.2695C45.1809 49.861 45.978 50.1953 46.8138 50.1953C47.6495 50.1953 48.4466 49.8738 49.0381 49.2695C50.2595 48.0481 50.2595 46.0423 49.0381 44.8209L31.9249 27.7077ZM48.8709 49.1024C47.7395 50.2338 45.9009 50.2338 44.7566 49.1024L27.6434 31.9892C26.5119 30.8577 26.5119 29.0191 27.6434 27.8748C28.7748 26.7434 30.6134 26.7434 31.7449 27.8748L48.8581 44.988C50.0024 46.1323 50.0024 47.9709 48.8709 49.1024Z" fill="black"/>
<path d="M31.7578 27.8748C30.6263 26.7434 28.7877 26.7434 27.6563 27.8748C26.5248 29.0063 26.5248 30.8449 27.6563 31.9892L44.7694 49.1024C45.9009 50.2338 47.7395 50.2338 48.8838 49.1024C50.0153 47.9709 50.0153 46.1323 48.8838 44.988L31.7578 27.8748ZM48.7038 48.9352C48.2024 49.4367 47.5338 49.7195 46.8266 49.7195C46.1195 49.7195 45.4509 49.4367 44.9494 48.9352L27.8234 31.8092C26.782 30.7677 26.782 29.0834 27.8234 28.042C28.3248 27.5405 28.9934 27.2577 29.7006 27.2577C30.4077 27.2577 31.0763 27.5405 31.5778 28.042L48.6909 45.1552C49.7453 46.1966 49.7452 47.8938 48.7038 48.9352Z" fill="black"/>
<path d="M57.074 24.3262L59.7869 19.6975L57.6011 17.5117L52.9725 20.2247L51.8282 23.5804L36.605 38.7907L38.5079 40.6936L53.7182 25.4705L57.074 24.3262Z" fill="#A7A9AC"/>
<path d="M57.0354 16.3932L51.9181 19.3761L50.761 22.809L35.525 38.0321L35.7307 38.045L35.795 38.1093L50.9667 22.9376L52.1239 19.5432L56.9968 16.7017L58.2183 17.9232L59.4397 19.1446L56.5982 24.0176L53.2039 25.1748L38.0322 40.3465L38.0965 40.4108L38.1093 40.6165L53.3453 25.3805L56.7654 24.2233L59.7483 19.1061L57.0354 16.3932Z" fill="black"/>
<path d="M51.1853 23.0662L52.3296 19.7104L56.9582 16.9975L59.144 19.1832L56.4311 23.8119L53.0753 24.9562L37.865 40.1793L38.0322 40.3465L53.2039 25.1748L56.5982 24.0176L59.4397 19.1447L58.2183 17.9232L56.9968 16.7018L52.1239 19.5432L50.9667 22.9376L35.795 38.1093L35.9621 38.2764L51.1853 23.0662Z" fill="black"/>
<path d="M36.1679 39.035L32.1564 38.8936L16.5603 54.4767C14.8375 56.1996 14.8375 59.0154 16.5603 60.7511C17.3961 61.5869 18.5147 62.0497 19.6975 62.0497C20.8804 62.0497 21.999 61.5869 22.8348 60.7511L38.4308 45.1551L38.2765 41.1308L36.1679 39.035ZM21.6133 56.0325L21.4461 55.8653L21.279 55.6982L35.1907 41.7865L35.3578 41.9536L35.525 42.1208L21.6133 56.0325Z" fill="#FFE46D"/>
<path d="M38.0193 44.7437L22.3462 60.404C20.5204 62.2298 17.5632 62.2298 15.7375 60.404C13.9117 58.5783 13.9117 55.6211 15.7375 53.7953L31.4106 38.1222L35.2936 38.2636L35.525 38.0322L31.3078 37.8779L15.5703 53.6282C13.6546 55.5439 13.6546 58.6683 15.5703 60.584C16.4961 61.5097 17.7304 62.024 19.0418 62.024C20.3533 62.024 21.5876 61.5097 22.5133 60.584L38.2507 44.8466L38.0965 40.6293L37.865 40.8608L38.0193 44.7437Z" fill="black"/>
<path d="M35.6278 38.2765L35.795 38.1093L35.7307 38.045L35.525 38.0322L35.2935 38.2636L35.6278 38.2765Z" fill="black"/>
<path d="M38.0322 40.3465L37.865 40.5136L37.8779 40.8479L38.1093 40.6165L38.0964 40.4108L38.0322 40.3465Z" fill="black"/>
<path d="M36.7464 39.395L37.865 40.5136L38.0322 40.3465L37.865 40.1793L35.9621 38.2764L35.795 38.1093L35.6278 38.2764L36.7464 39.395Z" fill="black"/>
<path d="M35.2807 38.2764L31.4106 38.1221L15.7374 53.7953C13.9117 55.621 13.9117 58.5782 15.7374 60.404C17.5632 62.2297 20.5204 62.2297 22.3461 60.404L38.0193 44.7437L37.8779 40.8479L37.865 40.8608L35.2807 38.2764ZM22.179 60.2368C21.3433 61.0726 20.2247 61.5354 19.0418 61.5354C17.8589 61.5354 16.7403 61.0726 15.9046 60.2368C14.1817 58.5139 14.1817 55.6982 15.9046 53.9624L31.5006 38.3664L35.5121 38.5079L37.6079 40.6036L37.7621 44.628L22.179 60.2368Z" fill="black"/>
<path d="M35.6278 38.2764L35.2935 38.2636L35.2807 38.2764L37.865 40.8608L37.8779 40.8479L37.865 40.5136L36.7464 39.395L35.6278 38.2764Z" fill="black"/>
<path d="M34.5346 41.256L20.6247 55.1659L20.7974 55.3387L34.7074 41.4287L34.5346 41.256Z" fill="black"/>
<path d="M20.7931 55.3434L20.9659 55.5161L34.87 41.6003L34.6972 41.4276L20.7931 55.3434Z" fill="black"/>
</svg>
