<?xml version="1.0" standalone="no"?>
<!DOCTYPE svg PUBLIC "-//W3C//DTD SVG 20010904//EN"
 "http://www.w3.org/TR/2001/REC-SVG-20010904/DTD/svg10.dtd">
<svg version="1.0" xmlns="http://www.w3.org/2000/svg"
 width="616.000000pt" height="616.000000pt" viewBox="0 0 616.000000 616.000000"
 preserveAspectRatio="xMidYMid meet">
<metadata>
Created by potrace 1.14, written by Peter Selinger 2001-2017
</metadata>
<g transform="translate(0.000000,616.000000) scale(0.100000,-0.100000)"
fill="#000000" stroke="none">
<path d="M2747 6113 c-1 -1 -38 -4 -82 -8 -44 -4 -83 -9 -87 -11 -4 -3 -24 -7
-45 -9 -21 -2 -60 -9 -88 -15 -27 -6 -63 -13 -79 -15 -54 -9 -54 -12 -49 -193
7 -275 8 -262 -13 -276 -10 -8 -22 -14 -27 -14 -19 -1 -73 -15 -82 -21 -5 -4
-21 -8 -35 -9 -20 -2 -32 8 -60 50 -19 29 -37 58 -39 63 -2 6 -7 12 -11 15 -3
3 -39 54 -80 113 -41 60 -78 111 -83 114 -5 3 -23 -2 -40 -10 -154 -74 -273
-132 -277 -137 -3 -3 -30 -18 -60 -34 -88 -48 -88 -20 -4 -251 14 -38 27 -74
28 -80 1 -5 12 -36 24 -67 12 -32 19 -63 17 -70 -3 -7 -25 -25 -48 -40 -24
-15 -54 -37 -67 -48 -13 -11 -26 -20 -29 -20 -5 0 -120 85 -186 137 -6 4 -47
36 -92 70 l-81 63 -42 -38 c-63 -55 -218 -210 -272 -272 l-48 -53 27 -36 c15
-20 32 -41 38 -48 30 -36 35 -43 35 -52 0 -5 4 -11 9 -13 8 -3 135 -163 155
-197 5 -7 -9 -33 -33 -66 -23 -30 -41 -59 -41 -64 0 -6 -14 -18 -31 -27 -17
-8 -29 -11 -25 -6 3 5 -14 15 -37 23 -23 7 -76 26 -117 42 -41 15 -82 30 -90
32 -8 1 -45 15 -83 29 l-67 25 -14 -22 c-74 -121 -149 -266 -192 -371 -13 -33
-24 -61 -24 -62 0 -2 21 -18 48 -35 26 -18 48 -36 50 -41 2 -4 8 -8 14 -8 6 0
27 -13 48 -30 21 -16 42 -30 48 -30 6 0 12 -3 14 -7 1 -5 32 -28 68 -52 36
-25 67 -46 69 -47 2 -2 -2 -25 -10 -51 -7 -26 -14 -51 -15 -55 -1 -5 -3 -10
-4 -13 -3 -6 -5 -12 -15 -42 -9 -29 3 -28 -287 -18 l-167 5 -12 -42 c-6 -24
-13 -52 -14 -63 -1 -11 -4 -33 -8 -50 -13 -59 -34 -204 -36 -245 0 -8 -3 -35
-6 -60 l-6 -46 48 -13 c26 -8 50 -15 53 -16 3 0 21 -6 40 -12 44 -14 158 -47
233 -68 l58 -17 -3 -96 -3 -97 -135 -40 c-74 -22 -141 -44 -147 -48 -7 -5 -13
-6 -13 -2 0 3 -16 -1 -35 -9 -19 -8 -35 -12 -35 -9 0 3 -6 1 -12 -5 -13 -10
-18 -12 -39 -12 -14 0 2 -155 35 -335 3 -16 8 -43 11 -60 8 -49 14 -76 20 -94
5 -16 22 -18 208 -15 111 1 207 3 212 4 25 6 34 -4 55 -62 12 -35 25 -70 28
-78 13 -36 14 -36 -113 -120 -44 -30 -82 -56 -85 -59 -3 -4 -37 -28 -77 -54
-40 -26 -75 -52 -78 -57 -3 -6 1 -22 9 -37 8 -16 24 -50 36 -78 36 -82 137
-276 149 -285 3 -3 11 -14 17 -25 19 -35 90 -23 278 45 92 33 169 60 170 58 9
-13 72 -94 77 -98 16 -12 18 -47 4 -65 -8 -11 -36 -48 -62 -81 -27 -34 -57
-74 -68 -89 -11 -16 -32 -42 -47 -59 -15 -17 -28 -34 -28 -37 0 -3 -11 -19
-25 -35 l-24 -28 22 -26 c63 -72 330 -330 342 -330 8 0 17 5 20 10 4 7 12 7
25 0 10 -5 20 -6 22 -2 2 5 30 28 63 53 33 24 62 46 65 49 3 3 45 35 93 72
l89 67 61 -42 c34 -23 64 -43 66 -44 5 -3 -23 -88 -74 -228 -20 -55 -38 -104
-39 -110 -1 -5 -9 -26 -18 -45 -14 -32 -14 -36 1 -51 24 -23 107 -69 246 -137
173 -85 188 -91 200 -84 5 4 17 6 25 4 9 -1 54 57 118 151 149 220 127 200
192 179 86 -27 91 -32 94 -88 1 -27 -1 -61 -5 -76 -4 -15 -3 -30 2 -34 5 -3 6
-10 3 -16 -4 -6 -8 -67 -10 -135 -2 -139 -4 -135 76 -148 25 -4 54 -9 65 -12
11 -2 29 -6 40 -7 11 -2 34 -6 50 -10 17 -3 50 -8 75 -11 25 -3 77 -9 115 -13
39 -5 79 -8 89 -8 21 1 22 5 72 176 15 52 38 129 51 170 l23 76 84 0 c83 1 85
0 91 -25 5 -23 36 -127 91 -306 18 -59 20 -68 23 -83 1 -9 197 -8 226 1 11 4
43 9 70 13 28 3 59 8 70 10 48 9 83 16 118 25 l37 10 -5 222 -6 222 87 27 c78
24 90 25 108 12 11 -8 17 -14 14 -14 -4 0 21 -40 55 -90 34 -49 84 -121 110
-159 45 -66 49 -70 74 -60 15 6 30 6 37 0 13 -11 344 149 383 185 16 15 14 23
-42 179 -80 226 -87 247 -77 257 5 5 43 34 83 63 l73 53 31 -21 c16 -11 44
-32 61 -46 17 -14 44 -36 60 -48 16 -12 61 -47 101 -78 70 -54 93 -65 93 -45
0 7 6 7 20 0 23 -12 31 -6 169 130 132 131 162 169 151 191 -7 12 -6 19 2 21
8 3 4 12 -9 25 -12 12 -19 24 -15 27 3 3 1 6 -4 6 -5 0 -27 25 -49 55 -22 30
-43 55 -47 55 -5 0 -8 4 -8 10 0 5 -23 38 -51 72 -28 35 -53 68 -55 74 -3 6 5
27 18 45 69 98 93 129 103 129 6 0 69 -21 141 -46 71 -25 149 -52 174 -61 25
-9 59 -17 77 -19 39 -3 40 -1 150 215 62 125 80 168 72 178 -6 7 -9 21 -6 32
2 10 2 23 -2 28 -3 5 -71 53 -151 107 -80 55 -154 106 -166 115 l-21 16 32 95
32 95 84 -4 c138 -6 354 -6 356 -1 1 3 6 17 11 31 6 14 13 41 16 60 3 19 12
77 21 129 20 121 26 202 14 216 -6 7 -8 24 -5 38 5 28 1 32 -35 40 -26 6 -89
24 -264 78 l-110 33 0 90 0 89 95 28 c100 29 102 30 243 73 l89 27 -6 57 c-11
103 -25 196 -41 271 -14 71 -23 109 -34 148 l-12 42 -177 -6 c-179 -5 -237 -7
-259 -5 -6 1 -23 36 -36 79 l-24 77 81 54 c44 30 83 57 86 60 10 12 101 71
109 71 5 0 11 4 13 8 2 4 19 18 40 30 35 22 36 24 26 60 -17 63 -144 316 -215
430 -8 14 -19 20 -26 15 -7 -4 -16 -8 -22 -9 -5 -1 -95 -32 -199 -69 -173 -63
-189 -67 -198 -50 -6 9 -18 25 -27 34 -9 10 -26 31 -37 47 l-22 30 45 60 c24
32 52 68 61 79 9 11 37 47 62 80 25 33 55 71 68 85 25 28 27 36 12 45 -8 5 -8
11 0 19 7 10 -6 31 -52 82 -74 81 -218 223 -269 264 l-35 29 -81 -62 c-44 -34
-95 -73 -113 -87 -18 -14 -46 -36 -64 -50 -65 -52 -95 -70 -110 -64 -9 3 -16
10 -16 15 0 5 -4 9 -10 9 -5 0 -18 7 -27 14 -10 8 -28 23 -41 33 l-23 18 36
100 c87 242 97 276 85 290 -8 10 -8 19 0 34 6 12 7 21 1 21 -5 0 -42 19 -83
43 -76 45 -307 160 -344 171 -16 5 -27 -1 -46 -26 -53 -70 -98 -138 -98 -148
0 -5 -3 -10 -7 -10 -5 0 -33 -38 -63 -85 -59 -90 -67 -95 -125 -71 -19 8 -35
13 -35 11 0 -2 -15 2 -32 10 l-33 13 -1 199 c-2 255 -2 251 -22 257 -37 11
-211 44 -272 51 -229 28 -218 28 -225 6 -3 -11 -8 -28 -10 -38 -2 -10 -28 -97
-57 -193 l-53 -175 -95 -3 -95 -3 -25 88 c-14 48 -25 90 -26 93 0 3 -17 60
-39 127 l-38 122 -34 -2 c-19 -1 -35 -3 -36 -4z m49 -56 c3 -10 4 -20 2 -22
-1 -1 -32 -6 -68 -10 -96 -10 -122 -14 -150 -19 -14 -3 -38 -8 -55 -11 -16 -3
-50 -10 -75 -16 l-45 -10 1 -62 c1 -34 3 -134 5 -222 l4 -160 -114 -37 c-107
-35 -116 -37 -133 -21 -10 9 -18 19 -18 23 0 3 33 16 73 29 39 12 80 27 89 32
10 5 26 9 36 9 17 0 18 8 16 88 -2 48 -5 149 -7 224 -5 150 -9 140 58 153 69
14 116 23 170 30 22 3 65 9 95 13 89 12 109 10 116 -11z m639 8 c22 -2 51 -7
65 -9 14 -3 41 -8 60 -10 19 -3 58 -10 85 -16 28 -7 57 -13 65 -14 8 -2 17
-11 18 -20 3 -13 -1 -17 -15 -13 -10 3 -36 9 -58 13 -22 4 -47 9 -55 10 -8 2
-35 6 -60 9 -25 3 -58 8 -75 10 -16 3 -50 7 -75 10 l-46 5 -63 -214 -64 -213
-122 -2 c-105 -1 -124 1 -129 15 -3 9 -4 19 -2 23 3 3 48 6 101 5 90 -2 97 -1
105 19 9 22 47 149 71 237 7 25 13 47 14 50 1 3 9 31 19 63 l17 57 52 -5 c29
-3 70 -8 92 -10z m809 -218 c3 3 6 1 6 -5 0 -7 6 -12 13 -12 7 0 63 -26 124
-57 173 -90 215 -114 211 -118 -4 -4 -76 31 -133 63 -44 25 -189 92 -200 92
-6 0 -51 -60 -100 -132 -49 -73 -92 -135 -95 -138 -3 -3 -18 -24 -34 -47 -27
-41 -37 -45 -76 -30 -8 3 -54 17 -102 33 -49 15 -88 32 -88 39 0 10 11 10 48
-2 26 -8 59 -18 74 -23 14 -4 29 -6 32 -2 3 3 6 0 6 -6 0 -26 30 -10 51 28 13
22 26 40 31 40 4 0 8 5 8 10 0 6 18 35 40 65 22 30 38 55 36 55 -3 0 6 12 19
26 14 15 25 33 25 40 0 8 3 14 8 14 4 0 18 18 32 39 19 31 27 38 41 31 9 -5
19 -6 23 -3z m-2348 -14 c16 -21 17 -33 4 -33 -13 0 -207 -95 -292 -144 -38
-21 -68 -43 -68 -50 0 -12 37 -123 65 -196 30 -77 29 -77 40 -115 4 -16 11
-34 15 -40 4 -5 10 -22 14 -37 5 -23 -1 -31 -57 -72 -34 -25 -67 -49 -72 -54
-6 -5 -23 -17 -37 -26 -26 -17 -28 -17 -53 2 l-26 20 33 23 c39 28 43 31 84
64 18 14 35 25 38 25 4 0 16 8 27 18 18 18 19 21 3 63 -9 24 -42 118 -74 209
l-58 166 32 19 c65 39 341 175 355 175 7 0 20 -8 27 -17z m-784 -500 c15 -14
14 -17 -20 -46 -66 -56 -272 -269 -272 -281 0 -6 9 -23 20 -36 78 -98 224
-288 232 -303 11 -21 6 -29 -80 -145 -41 -56 -58 -72 -70 -67 -10 4 -48 18
-87 32 -38 13 -79 28 -90 33 -11 4 -49 18 -85 31 -36 12 -71 27 -77 32 -7 5
-13 7 -13 3 0 -3 -11 -1 -25 4 -31 12 -34 8 -147 -217 -81 -162 -81 -162 -104
-146 -25 16 -26 33 -6 71 7 12 9 22 5 22 -4 0 -3 4 3 8 12 7 54 94 54 111 0 5
3 11 8 13 4 2 25 38 47 81 59 116 52 113 175 68 80 -29 108 -36 119 -27 11 8
13 8 8 -1 -7 -11 12 -27 38 -33 6 -2 17 -5 25 -7 17 -6 32 -10 42 -12 4 -1 23
-8 41 -16 l34 -14 72 98 c39 55 71 102 71 106 0 5 -20 32 -98 130 -4 6 -39 51
-77 100 -37 50 -72 92 -76 93 -5 2 -9 13 -9 24 0 27 296 322 313 312 6 -4 20
-14 29 -21z m3938 -14 c0 -4 -17 -19 -37 -35 -21 -15 -40 -31 -43 -34 -3 -3
-21 -17 -40 -30 -19 -13 -48 -37 -65 -52 -16 -15 -33 -28 -36 -28 -3 0 -17 -9
-30 -20 -13 -11 -29 -23 -34 -28 -6 -5 -23 -17 -38 -27 -26 -17 -28 -17 -47 0
-11 10 -20 21 -20 24 0 6 31 32 105 85 14 11 35 27 45 36 10 9 31 25 46 36 15
10 35 27 46 37 10 9 20 17 23 17 3 0 11 5 18 10 62 52 57 51 83 32 13 -9 24
-20 24 -23z m-1766 -240 c32 -5 71 -11 85 -13 106 -14 292 -66 412 -115 123
-50 193 -83 197 -93 2 -4 12 -8 23 -8 10 0 19 -4 19 -10 0 -5 5 -10 11 -10 6
0 31 -13 56 -30 24 -16 46 -30 48 -30 3 0 41 -26 84 -58 l80 -59 -74 -42 c-73
-41 -75 -44 -91 -99 -9 -31 -19 -61 -22 -67 -4 -5 -7 -14 -8 -20 -1 -5 -11
-38 -23 -71 -21 -59 -36 -76 -431 -470 -225 -225 -414 -410 -419 -412 -6 -2
-11 -10 -11 -19 0 -8 -5 -13 -11 -11 -6 2 -166 158 -355 348 l-345 344 7 55
c14 111 7 195 -26 318 -38 140 -104 255 -204 354 l-46 45 78 31 c187 75 364
120 542 139 30 3 56 7 58 9 7 7 315 2 366 -6z m-1296 -480 c35 -37 64 -70 64
-75 -1 -5 -106 -114 -233 -241 l-232 -233 -36 33 c-20 17 -58 55 -85 84 l-48
52 38 53 c74 102 242 276 359 370 80 65 63 69 173 -43z m-20 76 c-3 -3 -9 2
-12 12 -6 14 -5 15 5 6 7 -7 10 -15 7 -18z m40 -41 c-4 -3 -12 5 -18 18 -12
22 -12 22 6 6 10 -10 15 -20 12 -24z m3620 -15 c17 -27 12 -32 -73 -59 -38
-13 -74 -25 -80 -29 -5 -3 -14 -6 -20 -7 -5 -1 -55 -18 -109 -37 l-100 -35
-17 22 c-17 20 -16 21 19 38 21 10 44 17 53 18 9 0 18 3 22 6 6 6 160 62 191
69 10 2 24 9 32 16 8 6 14 8 14 5 0 -4 8 -2 18 3 26 15 36 13 50 -10z m-3518
-76 c0 -10 -31 16 -60 51 l-34 41 47 -45 c26 -24 47 -45 47 -47z m2245 64 c24
-19 15 -30 -55 -68 -64 -36 -56 -22 -126 -224 l-27 -80 -434 -434 -434 -433
-22 18 c-12 10 -24 20 -26 21 -2 1 192 197 431 436 l434 434 24 74 c13 41 28
80 33 87 5 6 6 12 2 12 -4 0 -3 6 2 13 6 6 13 26 17 42 6 25 46 78 46 61 0 -3
21 8 47 24 53 34 62 35 88 17z m-2206 -100 l22 -24 -267 -266 -267 -267 -22
26 -22 26 29 29 c16 16 31 29 34 29 5 0 44 38 44 43 0 4 272 277 277 277 6 0
43 40 44 48 0 4 22 25 48 47 27 22 46 43 44 48 -9 16 15 5 36 -16z m2659 -347
c151 -226 271 -537 308 -795 3 -22 7 -47 9 -55 6 -19 18 -201 18 -260 0 -65
-12 -261 -18 -290 -3 -14 -8 -41 -11 -60 -18 -116 -83 -344 -125 -437 -11 -24
-24 -55 -30 -70 l-11 -28 -19 24 c-25 30 -24 35 10 119 27 65 74 207 86 257 2
11 9 38 14 60 9 37 15 70 27 135 19 112 26 486 10 575 -3 22 -11 70 -17 107
-12 79 -17 103 -19 103 -1 0 -3 7 -5 15 -24 96 -57 205 -67 218 -6 6 -7 12 -3
12 4 0 2 6 -4 14 -7 8 -14 23 -16 35 -6 32 -110 241 -155 309 -22 35 -40 67
-40 72 0 4 -3 10 -8 12 -13 6 -81 106 -75 112 7 7 59 -61 141 -184z m-35 -56
c30 -51 58 -101 62 -113 3 -12 11 -21 16 -21 5 0 8 -3 7 -7 -1 -9 15 -52 38
-97 8 -16 14 -32 14 -36 0 -4 8 -25 17 -46 9 -22 18 -45 19 -52 1 -8 6 -21 10
-30 4 -9 9 -24 10 -32 2 -8 12 -46 22 -85 18 -63 35 -147 46 -230 2 -16 5 -30
6 -30 4 0 9 -111 10 -230 2 -160 -8 -277 -32 -385 -6 -30 -12 -62 -13 -70 -1
-8 -5 -22 -8 -30 -3 -8 -13 -44 -22 -80 -15 -58 -82 -249 -91 -259 -2 -2 -32
23 -67 56 -97 94 -196 151 -322 188 -70 21 -245 28 -321 14 l-50 -9 -347 347
-347 347 432 433 c364 364 440 436 478 449 25 9 52 19 60 22 8 3 17 6 20 7 84
23 150 52 159 69 11 21 40 70 55 94 10 16 56 -45 139 -184z m-4124 -264 c-21
-62 -40 -114 -43 -117 -7 -7 -31 -7 -252 0 l-192 6 -6 -32 c-3 -18 -9 -43 -12
-57 -3 -14 -7 -38 -10 -55 -3 -16 -9 -55 -14 -85 -11 -66 -23 -150 -23 -167 0
-14 -13 -16 -38 -5 -10 5 -14 19 -13 42 2 42 14 142 20 173 2 12 7 38 10 57 3
19 7 43 10 52 3 10 7 30 10 45 13 79 -4 73 168 69 84 -1 158 -6 164 -10 7 -4
12 -2 12 4 0 7 7 8 18 3 9 -5 35 -8 57 -8 l40 1 36 107 c20 59 35 107 32 107
-2 0 -1 5 2 10 4 6 17 3 34 -9 l28 -20 -38 -111z m1824 73 c47 -20 48 -35 2
-22 -64 18 -161 -11 -203 -61 -29 -33 -55 -107 -55 -151 1 -66 30 -112 133
-214 50 -49 96 -98 101 -108 6 -9 -51 44 -125 119 -139 140 -152 161 -148 233
3 56 51 141 100 175 79 56 119 62 195 29z m-1164 -80 c9 -7 12 -13 7 -13 -14
0 -86 82 -80 92 3 5 18 -8 32 -29 14 -21 33 -43 41 -50z m11 -72 c53 -48 173
-108 280 -140 67 -20 228 -29 316 -18 l50 7 262 -261 c145 -144 261 -266 260
-271 -2 -5 -253 -259 -558 -564 l-555 -554 -17 22 c-10 13 -24 34 -32 48 -7
14 -35 63 -60 110 -84 153 -171 397 -192 540 -3 19 -7 49 -9 65 -25 170 -26
385 -1 590 7 56 18 120 21 126 2 3 7 21 10 40 8 50 53 192 88 282 l30 78 41
-39 c23 -21 52 -49 66 -61z m1314 70 c-2 -3 -12 3 -22 13 -16 17 -16 18 5 5
12 -7 20 -15 17 -18z m246 -246 c129 -129 233 -235 230 -235 -3 0 -111 106
-240 235 -129 129 -233 235 -230 235 3 0 111 -106 240 -235z m3090 170 c0 -8
-1 -18 -2 -22 -2 -4 -70 -9 -153 -11 -82 -2 -168 -4 -189 -5 -28 -1 -42 3 -50
16 -8 13 -8 19 1 25 6 4 97 8 202 10 166 2 191 0 191 -13z m-3864 -222 c-5 -5
-56 45 -56 54 0 4 13 -6 30 -22 16 -16 28 -30 26 -32z m49 -43 c10 -11 16 -20
13 -20 -3 0 -13 9 -23 20 -10 11 -16 20 -13 20 3 0 13 -9 23 -20z m71 -72 l29
-33 -32 29 c-18 17 -33 31 -33 33 0 8 8 1 36 -29z m69 -68 c10 -11 16 -20 13
-20 -3 0 -13 9 -23 20 -10 11 -16 20 -13 20 3 0 13 -9 23 -20z m190 -20 c3 -5
1 -10 -4 -10 -6 0 -11 5 -11 10 0 6 2 10 4 10 3 0 8 -4 11 -10z m680 -30 c10
-11 16 -20 13 -20 -3 0 -13 9 -23 20 -10 11 -16 20 -13 20 3 0 13 -9 23 -20z
m-794 -27 l34 -37 -37 30 c-20 16 -37 32 -37 37 -2 12 4 8 40 -30z m169 2 c19
-19 31 -35 28 -35 -4 0 -23 16 -42 35 -20 19 -33 35 -28 35 4 0 23 -16 42 -35z
m-85 -87 l40 -42 -42 34 c-35 30 -52 50 -40 50 2 0 21 -19 42 -42z m205 -35
c41 -43 64 -68 51 -58 -38 32 -140 135 -132 135 3 0 40 -35 81 -77z m-2139
-27 c3 -132 0 -199 -7 -206 -9 -9 -378 -122 -401 -123 -11 0 -16 -8 -15 -27 0
-24 13 -147 17 -164 2 -11 7 -37 9 -56 3 -19 10 -59 17 -88 6 -29 8 -56 5 -60
-17 -16 -35 -7 -41 22 -4 17 -9 38 -11 46 -2 8 -6 29 -8 45 -2 17 -7 46 -11
65 -11 59 -13 73 -20 130 -3 30 -8 69 -10 86 -5 35 -2 37 110 69 33 9 94 27
135 40 107 33 164 49 172 47 4 -1 7 33 7 76 0 159 -2 150 26 144 22 -4 25 -10
26 -46z m3508 -702 c-2 -5 3 -29 10 -53 45 -157 -94 -318 -262 -305 -46 4
-155 50 -144 60 3 3 15 0 27 -6 12 -7 61 -13 109 -13 77 -2 91 1 132 25 43 25
67 51 95 103 15 30 10 131 -10 195 -17 51 -39 77 -334 375 l-316 320 347 -346
c192 -190 347 -350 346 -355z m-1484 676 c3 -5 1 -10 -4 -10 -6 0 -11 5 -11
10 0 6 2 10 4 10 3 0 8 -4 11 -10z m4 -71 l25 -20 -569 -569 -568 -568 -19 23
c-10 13 -18 26 -18 30 0 7 1112 1123 1120 1124 3 0 16 -9 29 -20z m236 -7 c-3
-3 -11 0 -18 7 -9 10 -8 11 6 5 10 -3 15 -9 12 -12z m-160 -2 c3 -5 1 -10 -4
-10 -6 0 -11 5 -11 10 0 6 2 10 4 10 3 0 8 -4 11 -10z m3097 -94 c48 -16 132
-39 136 -37 1 1 16 -6 32 -14 16 -8 32 -15 35 -15 27 2 115 -29 115 -41 0 -14
-13 -12 -188 41 -205 62 -195 58 -187 70 8 13 6 13 57 -4z m-3440 -736 c-303
-303 -556 -549 -562 -545 -5 3 -10 11 -10 17 0 6 246 257 548 558 465 467 549
546 561 535 12 -12 -68 -96 -537 -565z m894 442 c-5 -4 -106 98 -106 107 0 3
25 -19 55 -49 30 -29 53 -56 51 -58z m88 -81 c28 -28 48 -52 45 -53 -2 -2 -33
26 -68 61 -35 35 -56 59 -45 53 10 -6 41 -33 68 -61z m-119 -59 c-3 -3 -6 -3
-7 -1 -2 2 -16 20 -33 39 l-30 35 37 -34 c21 -19 36 -37 33 -39z m437 -530
c-2 -15 -5 -74 -7 -132 -4 -96 1 -133 30 -253 8 -33 77 -167 86 -167 5 0 9 -7
9 -15 0 -9 31 -48 69 -88 l70 -72 -42 -18 c-77 -34 -240 -84 -332 -103 -162
-33 -224 -39 -435 -38 -107 1 -206 4 -220 6 -14 3 -50 9 -80 12 -58 8 -254 52
-280 63 -8 3 -17 7 -20 8 -55 15 -223 83 -280 113 -64 35 -162 90 -180 101
-11 8 103 127 544 568 l559 559 256 -258 c223 -225 256 -262 253 -286z m807
533 c71 -9 78 -10 136 -30 63 -22 133 -57 165 -83 19 -16 10 -14 -36 8 -102
50 -188 68 -316 65 -62 -1 -124 -7 -139 -13 -20 -8 -30 -6 -50 9 -20 16 -22
20 -9 29 8 5 24 10 35 11 28 1 88 9 91 12 4 4 62 0 123 -8z m-999 -76 c0 -4
-16 8 -35 27 -19 18 -35 37 -35 41 0 4 16 -8 35 -27 19 -19 35 -37 35 -41z
m-191 17 c-2 -2 -13 8 -23 22 l-19 27 24 -22 c12 -12 21 -24 18 -27z m187
-183 c-3 -4 -176 169 -176 176 0 3 40 -35 90 -84 49 -49 88 -90 86 -92z m29
147 c3 -5 1 -10 -4 -10 -6 0 -11 5 -11 10 0 6 2 10 4 10 3 0 8 -4 11 -10z m80
-79 c56 -58 38 -51 -26 11 -29 28 -44 46 -34 40 11 -6 38 -29 60 -51z m-2847
-73 c17 -57 32 -108 32 -114 0 -6 -33 -33 -72 -60 -164 -111 -283 -196 -286
-203 -1 -4 35 -83 81 -175 96 -189 101 -236 10 -81 -37 62 -143 288 -143 304
0 4 16 15 35 25 19 11 35 23 35 28 0 4 6 8 13 8 6 0 23 9 37 21 14 11 70 50
125 87 54 37 103 70 108 73 8 6 -6 73 -24 114 -15 34 -27 83 -22 89 17 17 42
-23 71 -116z m2913 5 c13 -17 13 -17 -6 -3 -11 8 -22 16 -24 17 -2 2 0 3 6 3
6 0 17 -8 24 -17z m41 -43 c12 -11 20 -22 17 -24 -2 -2 -15 7 -29 20 -13 13
-21 24 -17 24 4 0 17 -9 29 -20z m-97 -70 c44 -44 77 -80 74 -80 -6 0 -159
150 -159 156 0 9 8 1 85 -76z m1125 -117 c45 -46 55 -59 25 -33 -48 43 -111
110 -103 110 2 0 37 -35 78 -77z m971 40 l24 -28 -30 25 c-16 14 -32 26 -34
28 -2 1 0 2 6 2 5 0 20 -12 34 -27z m-1006 -68 c41 -41 75 -79 75 -84 0 -40
-257 -312 -393 -415 l-78 -60 -80 81 -81 80 234 235 c128 130 236 236 240 237
4 1 41 -33 83 -74z m-921 -97 c-6 -33 -11 -104 -9 -157 3 -85 11 -126 42 -221
15 -45 75 -148 111 -192 20 -24 28 -36 17 -28 -37 28 -81 78 -100 114 -11 20
-23 36 -27 36 -5 0 -8 6 -8 13 0 7 -5 18 -12 25 -6 6 -13 17 -15 24 -1 7 -15
47 -29 88 -31 87 -41 242 -21 344 10 55 10 60 -11 76 -12 10 -22 22 -22 26 0
4 22 -14 48 -40 l49 -49 -13 -59z m2016 106 c0 -2 -9 0 -20 6 -11 6 -20 13
-20 16 0 2 9 0 20 -6 11 -6 20 -13 20 -16z m53 -33 c15 -8 27 -18 27 -23 0 -5
-15 1 -32 13 -53 36 -52 38 5 10z m67 -53 c0 -6 -6 -5 -15 2 -8 7 -15 14 -15
16 0 2 7 1 15 -2 8 -4 15 -11 15 -16z m-1041 -42 c-2 -2 -13 8 -23 22 l-19 27
24 -22 c12 -12 21 -24 18 -27z m-39 -18 c18 -20 19 -23 4 -46 -8 -13 -23 -31
-32 -41 -9 -10 -32 -36 -50 -59 -69 -85 -203 -213 -313 -298 -56 -43 -63 -45
-85 -34 -33 18 -30 33 14 62 34 23 49 35 120 97 62 54 150 141 188 187 97 115
114 136 114 145 0 16 19 10 40 -13z m-3780 -242 c0 -8 4 -16 8 -18 11 -4 122
-159 122 -170 0 -8 -78 -117 -91 -128 -4 -3 -35 -43 -70 -89 -35 -46 -72 -95
-83 -108 -18 -23 -18 -24 8 -57 14 -18 43 -51 65 -72 22 -21 39 -40 36 -42 -4
-4 -67 58 -152 151 -28 30 -31 37 -18 47 8 7 12 16 9 21 -3 5 -1 9 4 9 5 0 32
30 61 68 28 37 81 105 116 151 36 46 65 87 65 91 0 4 -22 37 -50 74 -50 67
-59 86 -40 86 6 0 10 -6 10 -14z m1075 -316 c3 -6 -1 -7 -9 -4 -18 7 -21 14
-7 14 6 0 13 -4 16 -10z m137 -69 c48 -23 131 -58 185 -77 94 -35 243 -76 243
-67 0 2 8 0 18 -6 9 -5 37 -12 62 -15 25 -4 59 -9 75 -12 17 -3 46 -7 65 -10
50 -7 383 -12 394 -6 4 2 33 6 64 8 30 2 67 5 81 8 14 3 41 8 59 11 76 13 202
46 287 75 50 18 105 37 123 43 17 5 32 14 32 18 0 11 36 3 61 -14 11 -8 16
-18 11 -21 -15 -9 -194 -78 -213 -81 -9 -2 -47 -12 -85 -23 -67 -20 -188 -44
-289 -58 -109 -16 -452 -8 -565 12 -14 2 -41 7 -60 10 -19 3 -75 17 -125 30
-49 13 -101 26 -115 30 -14 3 -38 12 -55 19 -16 7 -61 25 -100 41 -99 39 -268
129 -273 145 -4 11 0 10 14 -2 10 -9 58 -35 106 -58z m-487 -341 c5 -8 -26
-108 -62 -200 -4 -8 -7 -17 -8 -20 -1 -3 -4 -12 -7 -20 -8 -20 -49 -142 -54
-158 -3 -10 -10 -9 -33 3 l-30 15 39 109 c21 60 41 114 45 120 9 16 18 52 19
83 0 14 4 24 9 21 4 -2 9 2 12 9 24 69 24 69 44 58 11 -5 23 -15 26 -20z
m2360 -302 c17 -23 32 -47 35 -53 7 -13 43 -69 50 -75 6 -6 83 -118 94 -137 4
-7 3 -13 -1 -13 -5 0 -24 21 -43 48 -18 26 -48 68 -67 94 -18 26 -33 52 -33
58 0 5 -4 10 -10 10 -5 0 -10 6 -10 14 0 8 -3 16 -7 18 -9 3 -53 64 -53 73 0
15 18 0 45 -37z m-1636 -28 c16 -8 18 -23 14 -162 -8 -273 -6 -253 -28 -250
-11 2 -23 9 -27 15 -3 6 -4 62 -2 126 3 64 6 153 7 199 1 83 4 89 36 72z m818
-102 c6 -7 13 -24 16 -38 6 -31 83 -289 92 -311 8 -22 -20 -32 -35 -13 -7 8
-9 14 -5 14 4 0 3 6 -2 13 -10 11 -22 48 -30 91 -2 10 -12 45 -23 79 -11 33
-20 68 -20 77 0 9 -4 20 -9 26 -16 16 -21 74 -6 74 7 0 17 -6 22 -12z"/>
</g>
</svg>
